<?xml version="1.0" encoding="iso-8859-1"?>
<!-- Generator: Adobe Illustrator 19.0.0, SVG Export Plug-In . SVG Version: 6.00 Build 0)  -->
<svg version="1.1" id="Capa_1" xmlns="http://www.w3.org/2000/svg" xmlns:xlink="http://www.w3.org/1999/xlink" x="0px" y="0px"
	 viewBox="0 0 512 512" style="enable-background:new 0 0 512 512;" xml:space="preserve">
<g>
	<g>
		<path d="M85.156,427.06l-0.178-0.178c-3.897-3.918-10.231-3.934-14.148-0.039c-3.918,3.897-3.935,10.23-0.039,14.148l0.178,0.179
			c1.956,1.966,4.524,2.949,7.093,2.949c2.551,0,5.103-0.97,7.055-2.911C89.035,437.311,89.052,430.978,85.156,427.06z"/>
	</g>
</g>
<g>
	<g>
		<path d="M292.129,239.899c-16.549,0-30.012,13.463-30.012,30.012s13.463,30.012,30.012,30.012s30.012-13.463,30.012-30.012
			S308.677,239.899,292.129,239.899z M292.129,279.915c-5.516,0-10.004-4.488-10.004-10.004s4.488-10.004,10.004-10.004
			s10.004,4.488,10.004,10.004S297.645,279.915,292.129,279.915z"/>
	</g>
</g>
<g>
	<g>
		<path d="M192.048,239.899c-16.549,0-30.012,13.463-30.012,30.012s13.463,30.012,30.012,30.012
			c16.549,0,30.012-13.463,30.012-30.012S208.597,239.899,192.048,239.899z M192.048,279.915c-5.516,0-10.004-4.488-10.004-10.004
			s4.488-10.004,10.004-10.004c5.516,0,10.004,4.488,10.004,10.004S197.565,279.915,192.048,279.915z"/>
	</g>
</g>
<g>
	<g>
		<path d="M242.088,289.939c-16.549,0-30.012,13.463-30.012,30.012s13.463,30.012,30.012,30.012S272.1,336.5,272.1,319.951
			S258.637,289.939,242.088,289.939z M242.088,329.955c-5.516,0-10.004-4.488-10.004-10.004c0-5.516,4.488-10.004,10.004-10.004
			c5.516,0,10.004,4.488,10.004,10.004C252.092,325.467,247.605,329.955,242.088,329.955z"/>
	</g>
</g>
<g>
	<g>
		<path d="M242.088,189.859c-16.549,0-30.012,13.463-30.012,30.012c0,16.549,13.463,30.012,30.012,30.012
			s30.012-13.463,30.012-30.012C272.1,203.322,258.637,189.859,242.088,189.859z M242.088,229.875
			c-5.516,0-10.004-4.488-10.004-10.004c0-5.516,4.488-10.004,10.004-10.004c5.516,0,10.004,4.488,10.004,10.004
			C252.092,225.387,247.605,229.875,242.088,229.875z"/>
	</g>
</g>
<g>
	<g>
		<path d="M433.084,78.915c-48.199-48.198-112.186-76.219-180.173-78.9c-5.426-0.213-10.774,1.82-14.685,5.578
			c-3.961,3.808-6.141,8.929-6.141,14.422v8.019C171.176,30.503,114.222,55.399,70.9,98.722
			c-39.536,39.536-64.306,91.9-69.748,147.448c-5.368,54.788,8.167,110.195,38.114,156.016c1.919,2.937,5.119,4.532,8.383,4.532
			c1.877,0,3.776-0.527,5.463-1.631c4.625-3.022,5.923-9.222,2.901-13.847c-57.103-87.372-44.892-204.444,29.035-278.37
			c39.546-39.546,91.474-62.356,147.037-64.811v100.215c-62.636,5.106-112.045,57.707-112.045,121.637
			c0,67.298,54.751,122.049,122.049,122.049c63.93,0,116.531-49.409,121.637-112.045h100.215
			c-2.456,55.562-25.267,107.492-64.812,147.037c-74.182,74.184-191.518,86.22-278.997,28.622
			c-4.615-3.038-10.818-1.761-13.858,2.854c-3.038,4.614-1.761,10.818,2.854,13.857C148.532,498.23,195.065,512,242.253,512
			c7.717,0,15.46-0.369,23.183-1.112c55.7-5.366,108.205-30.151,147.841-69.787c43.321-43.321,68.219-100.277,70.688-161.185h8.019
			c5.492,0,10.613-2.181,14.421-6.141c3.758-3.911,5.792-9.263,5.578-14.685C509.303,191.101,481.283,127.114,433.084,78.915z
			 M242.088,371.952c-56.266,0-102.041-45.775-102.041-102.041c0-56.266,45.775-102.041,102.041-102.041
			c56.266,0,102.041,45.775,102.041,102.041S298.354,371.952,242.088,371.952z M363.731,259.908L363.731,259.908l-0.005,0.01
			c-4.832-59.345-52.3-106.813-111.645-111.645l0.011-0.005V20.015l0.03-0.007c129.404,5.102,234.766,110.465,239.862,239.899
			H363.731z"/>
	</g>
</g>
<g>
	<g>
		<path d="M79.84,205.922c-5.251-1.726-10.902,1.131-12.628,6.38l-0.324,0.995c-1.7,5.258,1.186,10.897,6.444,12.595
			c1.021,0.33,2.058,0.487,3.077,0.487c4.224,0,8.149-2.696,9.518-6.932l0.293-0.897C87.945,213.301,85.088,207.648,79.84,205.922z"
			/>
	</g>
</g>
<g>
	<g>
		<path d="M79.909,294.882l-0.137-0.913c-0.801-5.467-5.882-9.25-11.349-8.448c-5.466,0.8-9.25,5.881-8.448,11.349l0.16,1.064
			c0.762,4.943,5.023,8.48,9.875,8.48c0.507-0.001,1.02-0.039,1.538-0.119C77.008,305.452,80.751,300.342,79.909,294.882z"/>
	</g>
</g>
<g>
	<g>
		<path d="M108.359,364.982l-0.536-0.757c-3.177-4.52-9.418-5.607-13.938-2.43c-4.52,3.177-5.607,9.418-2.43,13.938l0.621,0.876
			c1.953,2.734,5.028,4.192,8.149,4.192c2.012,0,4.044-0.605,5.805-1.864C110.526,375.726,111.569,369.479,108.359,364.982z"/>
	</g>
</g>
<g>
	<g>
		<path d="M125.854,139.961c-3.912-3.904-10.245-3.897-14.149,0.014l-0.747,0.754c-3.879,3.936-3.833,10.269,0.103,14.148
			c1.949,1.921,4.486,2.879,7.022,2.879c2.584,0,5.168-0.995,7.126-2.981l0.66-0.666
			C129.771,150.197,129.765,143.863,125.854,139.961z"/>
	</g>
</g>
<g>
	<g>
		<path d="M325.812,422.884c-2.376-4.987-8.346-7.104-13.334-4.728l-0.841,0.397c-5.005,2.341-7.164,8.295-4.823,13.3
			c1.7,3.633,5.304,5.767,9.068,5.767c1.42,0,2.861-0.304,4.232-0.944l0.971-0.458C326.072,433.843,328.189,427.872,325.812,422.884
			z"/>
	</g>
</g>
<g>
	<g>
		<path d="M238.459,433.938l-0.923-0.022c-5.506-0.176-10.125,4.198-10.279,9.721c-0.154,5.523,4.198,10.125,9.721,10.279
			l1.07,0.026c0.07,0.001,0.14,0.002,0.209,0.002c5.429,0,9.886-4.345,9.998-9.798C248.368,438.623,243.982,434.052,238.459,433.938
			z"/>
	</g>
</g>
<g>
	<g>
		<path d="M196.519,101.56c-1.751-5.241-7.418-8.07-12.657-6.322l-0.995,0.334c-5.232,1.774-8.036,7.454-6.263,12.686
			c1.414,4.169,5.304,6.796,9.474,6.796c1.064,0,2.148-0.171,3.212-0.532l0.907-0.305C195.439,112.467,198.269,106.8,196.519,101.56
			z"/>
	</g>
</g>
<g>
	<g>
		<path d="M165.254,414.914l-0.833-0.445c-4.867-2.616-10.932-0.792-13.548,4.075c-2.616,4.867-0.792,10.932,4.075,13.548
			l0.926,0.494c1.496,0.793,3.099,1.169,4.682,1.169c3.583,0,7.048-1.931,8.846-5.315
			C171.991,423.561,170.134,417.504,165.254,414.914z"/>
	</g>
</g>
<g>
	<g>
		<path d="M414.789,294.111c-5.419-1.079-10.685,2.442-11.763,7.861l-0.188,0.934c-1.102,5.414,2.393,10.696,7.807,11.799
			c0.673,0.137,1.345,0.203,2.006,0.203c4.657,0,8.828-3.27,9.793-8.01l0.206-1.024
			C423.727,300.454,420.208,295.188,414.789,294.111z"/>
	</g>
</g>
<g>
	<g>
		<path d="M385.535,369.016c-4.361-3.39-10.647-2.603-14.038,1.759l-0.566,0.721c-3.426,4.335-2.691,10.625,1.643,14.052
			c1.838,1.453,4.026,2.157,6.199,2.157c2.954,0,5.879-1.302,7.854-3.799l0.667-0.851
			C390.685,378.692,389.898,372.406,385.535,369.016z"/>
	</g>
</g>
<g>
	<g>
		<path d="M443.968,168.009l-0.041-0.081c-2.471-4.942-8.478-6.944-13.422-4.474c-4.942,2.471-6.945,8.48-4.474,13.422l0.134,0.262
			c1.772,3.455,5.276,5.441,8.91,5.441c1.537,0,3.095-0.355,4.557-1.104C444.548,178.954,446.489,172.925,443.968,168.009z"/>
	</g>
</g>
<g>
	<g>
		<path d="M422.117,133.117c-29.821-39.192-72.239-67.988-119.439-81.087c-5.325-1.48-10.837,1.641-12.315,6.965
			c-1.478,5.324,1.641,10.837,6.965,12.315c43.013,11.937,81.677,38.189,108.868,73.923c1.969,2.587,4.951,3.947,7.968,3.947
			c2.112,0,4.241-0.666,6.05-2.043C424.611,143.79,425.463,137.514,422.117,133.117z"/>
	</g>
</g>
<g>
</g>
<g>
</g>
<g>
</g>
<g>
</g>
<g>
</g>
<g>
</g>
<g>
</g>
<g>
</g>
<g>
</g>
<g>
</g>
<g>
</g>
<g>
</g>
<g>
</g>
<g>
</g>
<g>
</g>
</svg>
