<?xml version="1.0" encoding="iso-8859-1"?>
<!-- Generator: Adobe Illustrator 19.0.0, SVG Export Plug-In . SVG Version: 6.00 Build 0)  -->
<svg version="1.1" id="Layer_1" xmlns="http://www.w3.org/2000/svg" xmlns:xlink="http://www.w3.org/1999/xlink" x="0px" y="0px"
	 viewBox="0 0 512 512" style="enable-background:new 0 0 512 512;" xml:space="preserve">
<g>
	<g>
		<path d="M506.395,297.689c-8.432-48.341-23.818-97.564-30.04-116.484c-10.972-33.354-33.245-54.991-68.092-66.146
			c-31.888-10.208-72.565-11.062-111.496-11.062c-6.517,0-13.139,0.028-19.853,0.056c-13.757,0.059-28.066,0.059-41.832,0
			c-6.715-0.028-13.339-0.056-19.853-0.056c-38.935,0-79.616,0.854-111.499,11.059c-34.844,11.154-57.115,32.791-68.089,66.148
			c-6.223,18.915-21.605,68.131-30.037,116.486c-8.725,50.03-7.273,82.215,4.439,98.396c5.641,7.795,13.746,11.915,23.438,11.915
			c3.577,0,7.431-0.564,11.463-1.677c23.302-3.787,45.895-5.333,77.829-5.333c13.885,0,28.685,0.265,45.824,0.572
			c22.057,0.396,47.059,0.845,77.171,0.845h20.46c30.109,0,55.11-0.449,77.169-0.845c17.14-0.307,31.941-0.572,45.826-0.572
			c31.934,0,54.527,1.547,77.828,5.333c4.033,1.114,7.886,1.677,11.464,1.677c9.695,0,17.802-4.121,23.445-11.917
			C513.671,379.903,515.122,347.717,506.395,297.689z M489.034,386.73c-2.661,3.676-5.906,5.316-10.52,5.316
			c-2.233,0-4.771-0.402-7.547-1.195c-0.297-0.085-0.599-0.153-0.903-0.202c-24.366-3.987-47.788-5.613-80.843-5.613
			c-14.028,0-28.896,0.267-46.112,0.575c-21.991,0.395-46.917,0.841-76.882,0.841h-20.46c-29.969,0-54.893-0.447-76.885-0.841
			c-17.215-0.308-32.082-0.575-46.11-0.575c-33.055,0-56.477,1.626-80.843,5.613c-0.304,0.05-0.606,0.117-0.903,0.202
			c-2.775,0.792-5.314,1.195-7.546,1.195c-4.611,0-7.853-1.639-10.513-5.314c-5.025-6.942-11.92-27.384-1.646-86.3
			c8.252-47.324,23.362-95.657,29.476-114.24c20.226-61.487,80.91-66.239,164.431-66.239c6.493,0,13.093,0.028,19.786,0.056
			c13.81,0.06,28.166,0.06,41.966,0c6.691-0.028,13.29-0.056,19.786-0.056c83.521,0,144.204,4.752,164.431,66.239
			c6.114,18.589,21.227,66.929,29.48,114.239C500.954,359.344,494.058,379.787,489.034,386.73z"/>
	</g>
</g>
<g>
	<g>
		<path d="M470.221,307.015c-0.731-4.343-4.846-7.266-9.19-6.545c-4.345,0.731-7.276,4.844-6.546,9.19
			c3.236,19.262,4.217,32.685,4.269,41.764c-20.538-2.521-41.922-3.617-69.531-3.617c-14.318,0-29.288,0.268-46.622,0.579
			l-0.157,0.002c-21.823,0.391-46.558,0.836-76.214,0.836h-20.46c-12.435,0-23.994-0.079-34.846-0.199l47.965-18.612
			c2.105-0.817,3.766-2.487,4.569-4.597l14.835-38.935l99.044-11.867c4.375-0.523,7.496-4.495,6.973-8.87
			c-0.045-0.375-0.124-0.737-0.218-1.092c-2.318-32.671-11.324-72.548-23.623-105.47c11.67,1.269,22.415,3.2,31.58,6.133
			c18.678,5.98,28.15,14.982,33.785,32.11c4.058,12.341,14.364,44.875,22.388,80.362c0.838,3.705,4.128,6.221,7.775,6.221
			c0.582,0,1.174-0.065,1.767-0.199c4.298-0.972,6.994-5.244,6.023-9.542c-8.176-36.157-18.664-69.268-22.794-81.828
			c-7.271-22.101-20.453-34.758-44.077-42.32c-13.703-4.387-30.182-6.714-47.826-7.944c-0.047-0.004-0.094-0.005-0.14-0.01
			c-16.799-1.165-34.65-1.338-52.173-1.338c-27.183,0-54.366,0-81.549,0c-35.989,0-73.365,0.717-100.143,9.289
			c-23.623,7.562-36.804,20.219-44.073,42.321c-1.667,5.069-4.291,13.232-7.319,23.342c-1.265,4.221,1.132,8.667,5.353,9.932
			c4.222,1.265,8.667-1.131,9.932-5.353c2.978-9.942,5.555-17.96,7.192-22.936c0.102-0.311,0.215-0.599,0.32-0.904
			c42.402,5.189,74.842,41.307,74.842,84.645c0,3.157-0.177,6.338-0.521,9.456c-0.551,4.976,3.851,9.446,8.863,8.871l90.731-10.871
			l-10.591,27.796l-81.301,31.551c-16.953-0.303-31.664-0.562-45.734-0.562c-27.608,0-48.987,1.096-69.527,3.616
			c0.056-10.428,1.336-26.343,5.717-49.951c2.792-15.049,6.533-31.558,11.119-49.066c1.116-4.263-1.434-8.622-5.696-9.738
			c-4.262-1.12-8.622,1.435-9.738,5.695c-4.682,17.881-8.509,34.77-11.371,50.198c-6.112,32.934-6.459,52.187-5.674,62.539
			c0.34,4.493,4.563,7.941,9.092,7.293c22.55-3.246,45.303-4.631,76.079-4.631c1.989,0,3.997,0.006,6.021,0.016l-1.094,0.424
			c-4.107,1.595-6.145,6.216-4.552,10.323c1.225,3.16,4.243,5.094,7.44,5.094c0.96,0,1.936-0.174,2.884-0.542l37.883-14.7
			c21.379,0.383,45.55,0.801,74.414,0.801h20.46c29.8,0,54.611-0.446,76.501-0.838l0.157-0.003
			c17.257-0.308,32.162-0.575,46.337-0.575c30.781,0,53.535,1.385,76.086,4.631c4.487,0.639,8.749-2.779,9.092-7.293
			C475.098,351.924,474.938,335.093,470.221,307.015z M177.263,282.915c0.005-0.45,0.019-0.9,0.019-1.35
			c0-49.451-35.578-91.005-83.047-99.623c5.804-7.469,13.919-12.456,25.709-16.231c24.588-7.87,60.551-8.53,95.278-8.53
			c27.183,0,54.366,0,81.549,0c15.472,0,31.186,0.133,46.034,0.974c12.393,30.8,21.809,69.474,24.868,101.944l-96.111,11.516
			c-0.034,0.004-0.067,0.007-0.101,0.012L177.263,282.915z"/>
	</g>
</g>
<g>
	<g>
		<path d="M307.007,200.633c-3.151-10.381-6.473-19.659-10.153-28.364c-1.716-4.058-6.397-5.955-10.455-4.241
			c-4.058,1.716-5.957,6.397-4.241,10.455c3.46,8.183,6.594,16.945,9.582,26.784c1.046,3.443,4.209,5.662,7.631,5.662
			c0.767,0,1.549-0.111,2.32-0.346C305.907,209.304,308.287,204.848,307.007,200.633z"/>
	</g>
</g>
<g>
	<g>
		<path d="M317.26,243.613c-0.997-5.678-2.193-11.576-3.658-18.032c-0.974-4.298-5.248-6.987-9.545-6.016
			c-4.297,0.975-6.99,5.249-6.015,9.546c1.406,6.198,2.552,11.845,3.503,17.262c0.68,3.874,4.046,6.599,7.848,6.599
			c0.457,0,0.922-0.039,1.389-0.121C315.122,252.089,318.022,247.953,317.26,243.613z"/>
	</g>
</g>
<g>
	<g>
		<path d="M226.345,213.344c-6.119-13.46-13.991-26.019-23.399-37.326c-2.818-3.388-7.848-3.849-11.236-1.031
			c-3.388,2.818-3.849,7.848-1.031,11.236c8.497,10.213,15.609,21.56,21.139,33.724c1.337,2.941,4.235,4.678,7.268,4.678
			c1.104,0,2.225-0.231,3.296-0.717C226.395,222.085,228.169,217.355,226.345,213.344z"/>
	</g>
</g>
<g>
	<g>
		<path d="M207.951,262.804c-2.553-17.783-9.086-35.51-18.895-51.267c-2.328-3.742-7.248-4.886-10.989-2.556
			c-3.741,2.33-4.886,7.248-2.556,10.989c8.649,13.894,14.405,29.491,16.646,45.1c0.571,3.977,3.984,6.846,7.887,6.846
			c0.378,0,0.76-0.027,1.143-0.082C205.55,271.207,208.578,267.164,207.951,262.804z"/>
	</g>
</g>
<g>
	<g>
		<path d="M168.285,185.729c-4.802-4.675-9.971-9.002-15.363-12.862c-3.583-2.564-8.566-1.739-11.131,1.842
			c-2.565,3.583-1.74,8.567,1.842,11.132c4.742,3.394,9.293,7.205,13.525,11.323c1.551,1.509,3.558,2.26,5.563,2.26
			c2.078,0,4.154-0.807,5.718-2.415C171.513,193.851,171.444,188.801,168.285,185.729z"/>
	</g>
</g>
<g>
</g>
<g>
</g>
<g>
</g>
<g>
</g>
<g>
</g>
<g>
</g>
<g>
</g>
<g>
</g>
<g>
</g>
<g>
</g>
<g>
</g>
<g>
</g>
<g>
</g>
<g>
</g>
<g>
</g>
</svg>
